<?xml version="1.0" encoding="UTF-8"?><svg xmlns="http://www.w3.org/2000/svg" viewBox="0 0 340.97 103.92"><defs><style>.d{fill:#fff;}.d,.e,.f{stroke-miterlimit:10;}.d,.f{stroke:#9bb7d4;}.e{fill:none;stroke:#1d1d1b;}.f{fill:#9bb7d4;}</style></defs><g id="a"/><g id="b"><g id="c"><g><path class="e" d="M72.64,34.95c-1.37-.16-2.76-.25-4.17-.25h4.24c-.02,.09-.04,.17-.07,.25Z"/><path class="d" d="M136.5,68.5v34h-34v-34c0-17.37-13.02-31.69-29.83-33.75l.04-.12-.04,.12c-1.39-.08-2.78-.17-4.17-.25-18.78,0-34,15.22-34,34v34H.5v-34c0-12.39,3.31-24,9.1-34,5.97-10.33,14.57-18.93,24.9-24.9C44.5,3.81,56.11,.5,68.5,.5c5.83,0,11.48,.73,16.88,2.11,6.07,1.55,11.82,3.92,17.12,6.99,4.62,2.67,8.9,5.87,12.74,9.52,4.76,4.5,8.87,9.68,12.16,15.38,5.79,10,9.1,21.61,9.1,34Z"/><path class="d" d="M204.47,34.7s-4.2,.17-4.17,.25c-16.81,2.06-29.83,16.38-29.83,33.75v34h-34v-34c0-12.39,3.31-24,9.1-34,3.29-5.7,7.4-10.88,12.16-15.38,3.84-3.65,8.12-6.85,12.74-9.52,5.3-3.07,11.05-5.44,17.12-6.99,5.4-1.38,11.05-2.11,16.88-2.11V34.7Z"/><rect class="e" x="238.47" y="34.7" width="34" height="34"/><rect class="e" x="238.47" y="34.7" width="34" height="34"/><path class="d" d="M272.47,68.7c0,12.39-3.31,24-9.1,34h-58.9V.7h34V68.7h34Z"/><path class="d" d="M340.47,.7V34.7h-34v34c0,11.92-2.05,23.37-5.81,34h-28.19V34.7h-34V.7h102Z"/><path class="f" d="M102.5,69.42c0,17.34-12.98,31.65-29.76,33.74-1.39,.17-2.8,.26-4.24,.26-18.78,0-34-15.22-34-34s15.22-34,34-34c1.41,0,2.8,.09,4.17,.25,16.81,2.06,29.83,16.38,29.83,33.75Z"/></g></g></g></svg>