<?xml version="1.0" encoding="UTF-8"?>
<svg id="_Слой_2" data-name="Слой 2" xmlns="http://www.w3.org/2000/svg" xmlns:xlink="http://www.w3.org/1999/xlink" viewBox="0 0 567.63 585.77">
  <defs>
    <style>
      .cls-1, .cls-2 {
        stroke-width: 0px;
      }

      .cls-2 {
        fill: url(#_Безымянный_градиент_10);
      }
    </style>
    <linearGradient id="_Безымянный_градиент_10" data-name="Безымянный градиент 10" x1="168.56" y1="327.71" x2="223.69" y2="340.47" gradientTransform="translate(98.91 -19.19) rotate(16.77)" gradientUnits="userSpaceOnUse">
      <stop offset=".23" stop-color="#f2f2f2"/>
      <stop offset=".53" stop-color="#f0f0f0"/>
      <stop offset=".64" stop-color="#e9e9e9"/>
      <stop offset=".71" stop-color="#ddd"/>
      <stop offset=".77" stop-color="#ccc"/>
      <stop offset=".83" stop-color="#b6b6b6"/>
      <stop offset=".87" stop-color="#9c9c9c"/>
      <stop offset=".91" stop-color="gray"/>
    </linearGradient>
  </defs>
  <path class="cls-2" d="m80.36,585.77c-3.24,0-6.33-.61-9.19-1.81-6.51-2.74-11.88-8.67-14.73-16.28-3.38-9.03-2.84-19.26,1.48-28.08l214.79-399.57.03-.05c5.58-7.98,14.5-12.75,23.86-12.75,4.12,0,8.09.91,11.79,2.69,13.27,6.42,19.88,23.07,15.06,37.91l-.03.09-218.33,404.24-.04.05c-6.06,8.49-15.29,13.56-24.71,13.56Z"/>
  <path class="cls-1" d="m322.51,167.52c-72.75,134.7-145.5,269.4-218.25,404.11-8.21,11.52-22.01,15.9-32.69,11.41-13.71-5.76-21.23-25.68-12.74-43,71.58-133.16,143.17-266.32,214.75-399.49,8.02-11.49,22.56-15.45,34.39-9.73,12.76,6.17,19.29,22.11,14.55,36.7Z"/>
  <g>
    <path class="cls-1" d="m259.54,585.33c-3.24,0-6.33-.61-9.19-1.81-6.52-2.74-11.89-8.67-14.74-16.27-3.38-9.02-2.84-19.25,1.49-28.06l214.79-399.27.03-.05c5.58-7.98,14.5-12.74,23.86-12.74,4.12,0,8.09.91,11.79,2.69,13.27,6.41,19.88,23.05,15.06,37.88l-.03.09-218.33,403.94-.04.05c-6.06,8.49-15.29,13.56-24.71,13.56Z"/>
    <path class="cls-1" d="m501.69,167.39c-72.75,134.6-145.5,269.2-218.25,403.8-8.21,11.51-22.01,15.89-32.69,11.4-13.71-5.76-21.23-25.67-12.74-42.97,71.58-133.06,143.17-266.12,214.75-399.19,8.02-11.48,22.56-15.44,34.39-9.72,12.76,6.17,19.29,22.09,14.55,36.67Z"/>
  </g>
</svg>