<?xml version="1.0" encoding="UTF-8"?>
<svg id="_Слой_2" data-name="Слой 2" xmlns="http://www.w3.org/2000/svg" viewBox="0 0 567.63 585.33">
  <defs>
    <style>
      .cls-1 {
        fill: #fff;
        stroke-width: 0px;
      }
    </style>
  </defs>
  <path class="cls-1" d="m322.51,167.52c-72.75,134.7-145.5,269.4-218.25,404.11-8.21,11.52-22.01,15.9-32.69,11.41-13.71-5.76-21.23-25.68-12.74-43,71.58-133.16,143.17-266.32,214.75-399.49,8.02-11.49,22.56-15.45,34.39-9.73,12.76,6.17,19.29,22.11,14.55,36.7Z"/>
  <g>
    <path class="cls-1" d="m259.54,585.33c-3.24,0-6.33-.61-9.19-1.81-6.52-2.74-11.89-8.67-14.74-16.27-3.38-9.02-2.84-19.25,1.49-28.06l214.79-399.27.03-.05c5.58-7.98,14.5-12.74,23.86-12.74,4.12,0,8.09.91,11.79,2.69,13.27,6.41,19.88,23.05,15.06,37.88l-.03.09-218.33,403.94-.04.05c-6.06,8.49-15.29,13.56-24.71,13.56Z"/>
    <path class="cls-1" d="m501.69,167.39c-72.75,134.6-145.5,269.2-218.25,403.8-8.21,11.51-22.01,15.89-32.69,11.4-13.71-5.76-21.23-25.67-12.74-42.97,71.58-133.06,143.17-266.12,214.75-399.19,8.02-11.48,22.56-15.44,34.39-9.72,12.76,6.17,19.29,22.09,14.55,36.67Z"/>
  </g>
</svg>